# xmcd CD database file
#
# Track frame offsets:
#	150
#	11061
#	23773
#	34676
#	48182
#	65768
#	79478
#	90439
#	113474
#	124071
#	135684
#	150710
#
# Disc length: 2143 seconds
#
# Revision: 0
# Processed by: cddbd v1.5.1PL2 Copyright (c) Steve Scherf et al.
# Submitted via: CDex 1.70beta1
#
DISCID=92085d0c
DTITLE=Pottery Barn (VA) - Supper Club - Part I
DYEAR=2005
DGENRE=Jazz
TTITLE0=Once Around The Moon - Peggy Lee
TTITLE1=Until I Met You (Corner Pocket) - Joe Williams and Harry "Sweets" Edison
TTITLE2=The Good Life - Bobby Darin
TTITLE3=On The Sunny Side Of The Street - Keely Smith
TTITLE4=Candy - Nat King Cole
TTITLE5=That Old Feeling - Chet Baker
TTITLE6=Call It Stormy Monday - Nancy Wilson
TTITLE7=Duke's Place - Duke Ellington and Louis Armstrong
TTITLE8=Pennies From Heaven - Louis Prima
TTITLE9=Something's Gotta Give - Dinah Washington
TTITLE10=Georgia On My Mind - Lou Rawls
TTITLE11=Just In Time - Dean Martin
EXTD=YEAR: 2005
EXTT0=
EXTT1=
EXTT2=
EXTT3=
EXTT4=
EXTT5=
EXTT6=
EXTT7=
EXTT8=
EXTT9=
EXTT10=
EXTT11=
PLAYORDER=
